<svg width="283" height="48" viewBox="0 0 283 48" fill="none" xmlns="http://www.w3.org/2000/svg">
<g clip-path="url(#clip0_1369_9410)">
<path d="M246.938 6.36501H238.091V24.4804H246.938V6.36501Z" fill="#00A7BA"/>
<path d="M238.049 6.2572V15.1907L255.99 15.1907V6.2572L238.049 6.2572Z" fill="#00A7BA"/>
<path d="M246.938 29.8002H238.091V47.9156H246.938V29.8002Z" fill="#00A7BA"/>
<path d="M280.36 29.8002H271.513V47.9156H280.36V29.8002Z" fill="#00A7BA"/>
<path d="M238.049 39.0665V48H255.99V39.0665H238.049Z" fill="#00A7BA"/>
<path d="M262.651 39.0665V48H279.938V39.0665H262.651Z" fill="#00A7BA"/>
<path d="M13.5252 28.0191C15.0709 28.0191 16.7977 27.9488 18.7148 27.8035C20.5651 27.6681 22.4034 27.3987 24.2155 26.9974C25.842 26.6481 27.4344 26.1524 28.9734 25.5163C30.0502 25.1107 31.0658 24.5554 31.9906 23.8664C32.5612 23.3981 33.0452 22.8317 33.4203 22.1931C33.7824 21.5744 34.0145 21.2557 34.1213 21.2557C34.228 21.2557 34.3209 21.462 34.2837 21.8791C34.1473 22.6866 33.9119 23.4739 33.5828 24.2226C33.1676 25.2713 32.6481 26.2748 32.0324 27.2176C31.5294 27.9575 30.9008 28.6018 30.1756 29.1206C29.0557 29.873 27.8757 30.5299 26.6478 31.0845C25.4129 31.5819 24.1515 32.009 22.8693 32.364C20.84 32.8974 18.7774 33.292 16.6956 33.5452C14.7364 33.7861 12.7648 33.9098 10.7911 33.9154C9.09722 33.9443 7.40343 33.8534 5.72213 33.6436C3.80038 33.3311 2.43411 32.7499 1.62333 31.9C1.25171 31.5585 0.958597 31.1391 0.764541 30.6711C0.570485 30.2031 0.48019 29.6979 0.49999 29.1909C0.518818 28.5435 0.582412 27.8983 0.690307 27.2598C0.817186 26.4193 0.971916 25.5834 1.1545 24.7523C1.25339 24.1968 1.38358 23.6476 1.54442 23.1071C1.63261 22.8446 1.76723 22.7087 1.94826 22.7087C2.1293 22.7087 2.2407 22.8681 2.28248 23.1774C2.32426 23.4868 2.37996 23.9976 2.43102 24.6866C2.48208 25.3756 3.00661 26.0037 3.99534 26.5615C5.9109 27.4989 9.0875 27.9848 13.5252 28.0191ZM11.2321 16.4515C11.2321 16.214 11.6003 15.3969 12.3368 14.0002C13.0749 12.5941 13.5252 11.9004 13.683 11.9004C13.9893 11.7738 14.435 11.9988 15.0198 12.5706C15.5081 13.0253 15.954 13.5242 16.3521 14.0611C16.7141 13.4612 17.1149 12.7894 17.5543 12.0457C17.9953 11.3051 18.2877 10.9302 18.4316 10.9302C18.8958 10.9302 19.4157 11.263 20.0331 11.9238C20.5685 12.4131 20.9168 13.0766 21.0172 13.7986C20.9387 14.6991 20.5906 15.5541 20.0192 16.25C19.374 17.1874 18.8958 17.6561 18.5941 17.6561C18.3945 17.6561 18.0324 17.3936 17.5126 16.8687C17.0809 16.4232 16.6152 16.0126 16.12 15.6407C15.1514 17.6186 14.3777 18.6076 13.799 18.6076C13.5619 18.5585 13.3459 18.4356 13.1817 18.256C12.931 18.0357 12.5364 17.7123 12.0073 17.2764C11.4781 16.8405 11.2321 16.5593 11.2321 16.4515Z" fill="black"/>
<path d="M45.6377 19.7981C45.5314 20.7037 45.3386 21.5968 45.0621 22.465C44.7155 23.7555 44.2514 25.1616 43.6696 26.6833C43.2525 27.8689 42.753 29.0232 42.1749 30.1377C41.8297 30.8184 41.3567 31.4249 40.7823 31.9235C40.0291 32.4426 39.1895 32.8205 38.3035 33.039C37.4045 33.3267 36.4902 33.563 35.5648 33.7467C35.1323 33.8317 34.6952 33.8912 34.2558 33.9248C34.0794 33.9248 33.968 33.8311 33.9355 33.7045C33.9276 33.6196 33.9375 33.5339 33.9647 33.4531C33.9919 33.3723 34.0358 33.2983 34.0933 33.2358C34.5142 32.7408 35.0226 32.3291 35.5927 32.0219C36.3911 31.5251 37.3241 30.897 38.3778 30.1471C39.219 29.5754 39.9821 28.8947 40.6477 28.1223C41.2367 27.3314 41.7467 26.4836 42.1702 25.5913C42.7365 24.4664 43.2487 23.3321 43.7067 22.1885C44.1647 21.0448 44.4927 20.2637 44.6908 19.8449C44.8904 19.4278 45.1039 19.2263 45.3407 19.245C45.5774 19.2638 45.6377 19.47 45.6377 19.7981Z" fill="black"/>
<path d="M49.8945 23.6649C49.8683 24.2942 49.7969 24.9208 49.6809 25.5397C49.5932 26.0241 49.4482 26.4962 49.2492 26.9458C49.1019 27.2934 48.8646 27.5946 48.5622 27.8176C48.2629 28.0131 47.9007 28.0852 47.5503 28.0191C47.5689 26.6037 47.7236 24.6304 48.0145 22.0994C48.3054 19.5684 48.7139 16.7687 49.2399 13.7002C49.5277 12.8097 50.1111 11.2473 50.9899 9.01318C51.0828 8.79289 51.1756 8.70384 51.2731 8.74133C51.3706 8.77883 51.4216 8.86788 51.4216 9.01318C51.3721 10.1193 51.1478 12.2332 50.7486 15.3548C50.3494 18.4763 50.1095 20.6105 50.0291 21.7572C49.9409 22.9196 49.8945 23.5571 49.8945 23.6649Z" fill="black"/>
<path d="M56.393 22.8493L56.1377 23.1587C56.0625 23.253 56.0029 23.3591 55.9613 23.4727C56.0866 23.618 56.6065 23.6602 57.5117 23.5946C58.4169 23.529 59.2338 23.4399 59.9533 23.3227C60.3902 23.2658 60.8229 23.1797 61.2484 23.0649C61.5741 22.9634 61.9081 22.8912 62.2464 22.8493C62.6781 22.8493 62.8917 23.0556 62.8917 23.4727C62.8917 23.8899 62.5435 24.4101 61.8426 25.1319C61.2599 25.7876 60.7437 26.5004 60.3015 27.2598C59.6659 28.2944 58.9635 29.2855 58.1987 30.2267C57.4027 31.2941 56.4382 32.222 55.3439 32.9733C54.3123 33.6054 53.1248 33.9303 51.9182 33.9107C51.2862 33.9406 50.6575 33.8026 50.0947 33.5107C49.5319 33.2188 49.0547 32.783 48.7107 32.2469C47.9105 30.9823 47.5151 29.4997 47.578 28.0004C47.6039 27.5413 47.6945 27.0884 47.8473 26.6552C48.003 26.1934 48.1923 25.7437 48.4136 25.31C48.6058 24.9188 48.846 24.5535 49.1284 24.2226C49.3205 23.9673 49.5891 23.7815 49.8943 23.693C49.8943 25.2678 50.21 26.4677 50.8227 27.2833C51.4355 28.0988 52.401 28.5394 53.84 28.5394C55.0619 28.559 56.2674 28.2534 57.3353 27.6535C58.8826 26.763 59.6563 25.9647 59.6563 25.2585C59.2211 25.3534 58.7783 25.4083 58.3333 25.4225C58.013 25.4553 57.2657 25.4741 56.0959 25.4741C55.4033 25.4974 54.7099 25.4708 54.021 25.3944C53.7889 25.3382 53.6961 25.221 53.7518 25.0382C53.912 24.3636 54.2005 23.7269 54.6012 23.1634C55.0834 22.3957 55.689 21.7145 56.393 21.1479C56.4543 21.234 56.5086 21.3249 56.5555 21.4198C56.6069 21.5719 56.6427 21.729 56.6622 21.8885C56.6797 22.0343 56.6702 22.1821 56.6344 22.3244C56.5665 22.505 56.4858 22.6804 56.393 22.8493ZM49.6251 41.9162C49.6251 41.5163 49.9624 40.6507 50.6371 39.3196C51.3117 37.9885 51.748 37.3214 51.9461 37.3182C52.3422 37.1526 52.9178 37.4557 53.6729 38.2275C54.4248 39.0009 54.8287 39.6008 54.8844 40.0367C54.8844 40.6179 54.5749 41.4538 53.956 42.5443C53.3371 43.6348 52.8729 44.1785 52.5634 44.1754C52.4567 44.1238 52.0992 43.8801 51.4447 43.4536C50.7902 43.027 50.3353 42.7083 50.0522 42.488C49.769 42.2677 49.6251 42.1178 49.6251 41.9162Z" fill="black"/>
<path d="M69.4972 12.3925C69.6968 12.3925 69.7665 12.4816 69.7154 12.6644C69.4244 13.2426 69.0973 13.8015 68.736 14.3377C68.3798 14.9411 67.9827 15.519 67.5476 16.0672C67.2666 16.4165 66.9174 16.7036 66.5218 16.9108C66.3609 17.039 64.9327 17.7561 62.2373 19.0622C59.5419 20.3683 57.5908 21.6182 56.3839 22.8118C56.2769 22.6128 56.2091 22.3948 56.1843 22.1697C56.1507 21.8092 56.22 21.4465 56.3839 21.1245C56.9409 20.5808 57.6929 19.9199 58.6352 19.1513C59.5775 18.3826 60.6312 17.5952 61.7917 16.8077C62.9522 16.0203 64.1637 15.2329 65.4309 14.4642C66.6187 13.7498 67.8479 13.1081 69.112 12.5425L69.4972 12.3925ZM61.0304 5.4979C61.0304 5.26355 61.4018 4.448 62.1352 3.05126C62.8686 1.65453 63.3235 0.937408 63.486 0.937408C63.7923 0.810858 64.2333 1.03584 64.8182 1.60766C65.3074 2.06961 65.7548 2.57468 66.1551 3.11688L67.3434 1.11552C67.8076 0.370276 68.0861 0 68.23 0C68.6942 0 69.2141 0.33278 69.8361 0.993653C70.369 1.48486 70.7168 2.14742 70.8202 2.86847C70.7388 3.76822 70.391 4.62239 69.8222 5.31979C69.1723 6.2572 68.6988 6.72591 68.3925 6.72591C68.1929 6.72591 67.8354 6.46343 67.3155 5.93379C66.8925 5.48396 66.4363 5.06718 65.9508 4.68704C64.9791 6.66497 64.2055 7.65394 63.6299 7.65394C63.3912 7.60555 63.1735 7.48258 63.0079 7.30241C62.7572 7.08212 62.3673 6.75871 61.8381 6.32282C61.3089 5.88692 61.0304 5.62445 61.0304 5.4979Z" fill="black"/>
<path d="M84.0031 20.5339C83.5633 20.9888 83.029 21.3394 82.4388 21.5604C82.2324 21.6454 82.0152 21.7006 81.7935 21.7244C81.4102 21.7225 81.0307 21.6478 80.6748 21.5041L79.7836 21.1526C79.5608 21.0589 79.3658 20.9792 79.2033 20.9042C78.7257 20.9711 78.2724 21.158 77.885 21.4479C76.1768 22.4666 74.6667 24.1851 73.3546 26.6037C73.0456 27.1619 72.7832 27.7451 72.5701 28.3472C71.8744 29.9466 71.4823 31.6637 71.4142 33.4092C71.4142 35.7153 72.1879 37.5495 73.7352 38.9118C75.2825 40.2742 77.4301 40.9632 80.1781 40.9788C82.486 40.9427 84.7484 40.3257 86.7604 39.1837C88.9169 38.0034 90.8335 36.4227 92.4095 34.5248C93.0935 33.5873 93.6226 32.8718 93.9971 32.3781C94.5216 31.6516 94.8883 31.361 95.1019 31.5063C95.3154 31.6516 95.1019 32.2375 94.4845 33.3296C93.7948 34.5686 93.0386 35.7688 92.2192 36.9245C91.7488 37.5495 91.0572 38.3838 90.1443 39.4274C89.3726 40.325 88.5529 41.1794 87.6887 41.9865C86.2186 43.3937 84.5796 44.6093 82.8101 45.6049C81.1184 46.487 79.2413 46.9451 77.3373 46.9407C76.4276 46.9587 75.5198 46.8483 74.6404 46.6126C72.8863 46.136 71.3566 45.0465 70.3234 43.5379C69.7723 42.6904 69.3616 41.758 69.1072 40.7773C68.8538 39.7662 68.729 38.7267 68.7359 37.6838C68.7806 36.1632 69.0161 34.6544 69.4368 33.1936C69.9008 31.4723 70.5143 29.7956 71.2703 28.1832C71.7717 27.1645 72.2482 26.2927 72.7 25.5678C73.2896 24.5695 73.777 23.8102 74.153 23.2805C74.529 22.7509 74.9282 22.3103 75.2856 21.8744C76.0906 20.9544 76.9559 20.09 77.8758 19.2872C78.1079 19.0528 78.2239 18.8888 78.2239 18.8185C78.2252 18.6336 78.1873 18.4505 78.1129 18.2816C78.0384 18.1126 77.9291 17.9617 77.7922 17.8389C77.6542 17.7022 77.4899 17.5955 77.3095 17.5254C77.129 17.4552 76.9363 17.4232 76.7431 17.4311C76.5087 17.4293 76.2759 17.4706 76.0561 17.553C75.8385 17.6317 75.6169 17.699 75.3923 17.7545C75.2856 17.6842 75.2856 17.492 75.3923 17.1827C75.5006 16.8865 75.6576 16.6108 75.8565 16.3671C76.4063 15.7817 77.0497 15.2937 77.7597 14.9235C78.4571 14.5366 79.2386 14.3305 80.0342 14.3236C80.8326 14.3211 81.6179 14.5278 82.3134 14.9235C83.0236 15.3219 83.3161 15.8235 83.1907 16.4234C83.1166 16.7677 82.9897 17.0982 82.8147 17.403C82.5813 17.7691 82.319 18.1155 82.0303 18.4388C81.8848 18.6357 81.922 18.7622 82.1417 18.8185C82.3927 18.8541 82.6481 18.8398 82.8937 18.7763C83.2968 18.6621 83.6792 18.4833 84.0263 18.2467C84.1757 18.4665 84.2727 18.7184 84.3094 18.9825C84.3373 19.2169 84.3512 19.3622 84.3512 19.4184C84.3398 19.6117 84.3087 19.8034 84.2584 19.9902C84.2116 20.1874 84.1247 20.3726 84.0031 20.5339Z" fill="black"/>
<path d="M84.0032 18.2466C84.4864 17.8645 84.9131 17.4147 85.2704 16.9108C85.47 16.639 85.7671 16.1937 86.1617 15.5797C86.3217 15.2562 86.5015 14.9432 86.7002 14.6423C87.0001 14.0372 87.371 13.4707 87.8049 12.955C88.0231 12.7206 88.2691 12.4582 88.5894 12.1676C88.7472 12.041 88.8865 11.9191 89.0072 11.8113L89.3414 11.5114C89.5054 11.3145 89.7839 10.9255 90.1769 10.3443C90.2883 10.1615 90.4462 9.87559 90.6643 9.52406C91.1647 10.0269 91.63 10.5641 92.0569 11.1317C92.6139 11.9145 92.8924 12.5378 92.8924 12.955C92.8899 13.7835 92.6157 14.5878 92.1126 15.2423C91.9199 15.5544 91.6547 15.8144 91.3401 15.9998C91.0255 16.1851 90.6708 16.2903 90.3069 16.3062C90.0433 16.2743 89.7815 16.2289 89.5224 16.1703C89.1947 16.0935 88.8606 16.048 88.5244 16.0344C87.986 16.0344 87.4382 16.3671 86.8812 17.0374C86.4603 17.5293 86.0726 18.0492 85.7207 18.5935L84.0218 20.5527C83.9323 20.1894 83.8611 19.8218 83.8082 19.4512C83.7502 19.039 83.8182 18.6187 84.0032 18.2466Z" fill="black"/>
<path d="M97.1071 23.6649C97.0786 24.294 97.0072 24.9204 96.8936 25.5397C96.8016 26.0231 96.6568 26.4946 96.4619 26.9458C96.3146 27.2934 96.0773 27.5946 95.7749 27.8176C95.4755 28.0131 95.1134 28.0852 94.7629 28.0191C94.7815 26.6037 94.9362 24.6304 95.2271 22.0994C95.518 19.5684 95.9358 16.7687 96.4804 13.7002C96.7682 12.8097 97.3516 11.2473 98.2304 9.01318C98.3233 8.79289 98.4161 8.70384 98.5136 8.74133C98.6111 8.77883 98.6621 8.86788 98.6621 9.01318C98.6095 10.1193 98.3852 12.2332 97.9891 15.3548C97.5929 18.4763 97.35 20.6183 97.2603 21.7807C97.1535 22.9196 97.1071 23.5571 97.1071 23.6649Z" fill="black"/>
<path d="M100.101 33.9295C98.2135 33.892 96.8116 33.2374 95.8956 31.9656C95.1288 30.7973 94.7336 29.4204 94.763 28.0191C94.8883 27.4942 95.0183 26.9739 95.1529 26.4537C95.2737 25.9742 95.4289 25.5043 95.6171 25.0476C95.7638 24.6782 95.9727 24.3373 96.2345 24.0398C96.3448 23.9153 96.4801 23.8158 96.6313 23.7479C96.7825 23.6801 96.9463 23.6454 97.1118 23.6461C97.0438 24.8169 97.4095 25.9713 98.1377 26.8849C98.4594 27.2693 98.8625 27.5759 99.3172 27.7819C99.7719 27.988 100.267 28.0883 100.765 28.0754L103.355 23.8289C103.85 23.0143 104.458 22.2756 105.161 21.6354C105.689 21.1136 106.391 20.8081 107.129 20.7777C107.56 20.7899 107.986 20.8641 108.396 20.998C109.108 21.2529 109.841 21.4412 110.587 21.5604C110.798 21.5723 111.009 21.5437 111.209 21.476C111.335 21.4245 111.497 21.3589 111.697 21.2886C111.896 21.2182 111.998 21.3964 111.966 21.612C111.874 22.0726 111.718 22.5177 111.502 22.9337C111.355 23.3243 111.14 23.6849 110.866 23.9977C110.647 24.1924 110.445 24.4056 110.262 24.6351C110.016 24.9257 109.747 25.2772 109.45 25.685C109.153 26.0928 108.74 26.7255 108.211 27.5879L107.264 29.1347C106.485 30.4335 105.469 31.5709 104.27 32.4859C103.076 33.4181 101.61 33.9256 100.101 33.9295ZM99.2099 41.949C99.2099 41.5522 99.5472 40.6851 100.222 39.3477C100.896 38.0104 101.333 37.3432 101.531 37.3464C101.927 37.1807 102.501 37.4854 103.253 38.2603C104.005 39.0353 104.414 39.6383 104.478 40.0695C104.478 40.6507 104.169 41.485 103.55 42.5724C102.931 43.6598 102.467 44.2051 102.158 44.2082C102.051 44.1519 101.693 43.9129 101.039 43.4864C100.384 43.0599 99.9294 42.7365 99.6463 42.5209C99.3631 42.3052 99.2099 42.1459 99.2099 41.949ZM101.907 28.1223C102.742 28.1415 103.574 28.0081 104.362 27.7285C105.008 27.4849 105.616 27.1504 106.168 26.7349C107.203 25.9768 108.082 25.0215 108.754 23.9227C108.443 23.7007 108.095 23.5357 107.728 23.4352C107.341 23.277 106.932 23.1775 106.516 23.1399C105.931 23.135 105.365 23.3467 104.924 23.7352C104.525 24.0842 104.187 24.4995 103.926 24.9632L101.907 28.1223Z" fill="black"/>
<path d="M118.947 29.4627C119.328 29.1293 119.755 28.8545 120.215 28.6472C120.602 28.4337 121.04 28.3301 121.482 28.3472C122.051 28.4624 122.629 28.5267 123.209 28.5394C123.727 28.5843 124.248 28.4889 124.717 28.2629C125.144 28.071 125.495 27.7411 125.715 27.3255C125.822 27.1614 125.933 26.9927 126.054 26.8193L126.518 26.1678C126.71 25.9053 126.865 25.774 126.982 25.774C127.145 25.774 127.224 25.9193 127.224 26.2099C127.224 26.8974 126.82 28.0316 126.012 29.6127C125.647 30.4323 125.179 31.201 124.62 31.9C123.944 32.7107 123.07 33.3295 122.085 33.6951C121.712 33.8228 121.318 33.8785 120.925 33.8592C120.818 33.8592 120.461 33.8217 119.899 33.7514C119.57 33.6864 119.236 33.6504 118.901 33.6436C118.067 33.6701 117.271 34.0035 116.663 34.581C116.416 34.813 116.156 35.0305 115.884 35.2325C115.809 35.3159 115.717 35.3816 115.614 35.4245C115.512 35.4675 115.401 35.4868 115.289 35.4809C115.107 35.4059 115.116 35.0934 115.317 34.5435C115.547 33.9669 115.827 33.4117 116.153 32.8843C116.654 32.1375 117.14 31.4751 117.61 30.897C118 30.3683 118.448 29.887 118.947 29.4627ZM121.482 15.6313C121.482 15.2344 121.819 14.3689 122.494 13.0347C123.168 11.7004 123.605 11.0333 123.803 11.0333C124.199 10.8708 124.773 11.1739 125.525 11.9426C126.277 12.7113 126.688 13.3143 126.76 13.7518C126.76 14.333 126.45 15.1688 125.831 16.2593C125.212 17.3499 124.748 17.8936 124.439 17.8904C124.332 17.8389 123.974 17.5952 123.32 17.1686C122.665 16.7421 122.211 16.4234 121.904 16.2031C121.791 16.1521 121.693 16.0728 121.619 15.9727C121.545 15.8726 121.498 15.7551 121.482 15.6313Z" fill="black"/>
<path d="M131.564 23.6649C131.538 24.2942 131.466 24.9208 131.35 25.5397C131.263 26.0241 131.118 26.4962 130.919 26.9458C130.771 27.2934 130.534 27.5946 130.232 27.8176C129.932 28.0131 129.57 28.0852 129.22 28.0191C129.238 26.6037 129.393 24.6304 129.684 22.0994C129.975 19.5684 130.393 16.7687 130.937 13.7002C131.225 12.8097 131.81 11.2473 132.692 9.01318C132.78 8.79289 132.873 8.70384 132.975 8.74133C133.026 8.7642 133.068 8.8031 133.094 8.85215C133.121 8.9012 133.131 8.95773 133.124 9.01318C133.068 10.1193 132.842 12.2332 132.446 15.3548C132.05 18.4763 131.808 20.6183 131.722 21.7807C131.61 22.9196 131.564 23.5571 131.564 23.6649Z" fill="black"/>
<path d="M131.564 24.6163C131.564 25.8162 131.81 26.7115 132.293 27.3114C132.461 27.5881 132.694 27.8185 132.972 27.9821C133.25 28.1456 133.564 28.2373 133.885 28.2488C133.992 28.2488 134.173 27.7801 134.423 26.8849C134.56 26.3227 134.794 25.7895 135.115 25.31C135.547 25.146 135.909 25.3382 136.197 25.8819C136.426 26.3219 136.583 26.7969 136.661 27.288C136.657 28.6774 136.364 30.0506 135.802 31.3188C134.991 33.0624 133.908 33.9342 132.553 33.9342C132.172 33.9346 131.797 33.8509 131.452 33.6889C131.107 33.527 130.801 33.2907 130.557 32.9968C130.025 32.4275 129.66 31.7199 129.503 30.9532C129.345 29.9821 129.274 28.9985 129.29 28.0145C129.294 27.4892 129.37 26.9671 129.517 26.463C129.657 25.9528 129.852 25.4594 130.097 24.9913C130.295 24.6065 130.556 24.2579 130.868 23.9602C131.146 23.7024 131.392 23.6133 131.606 23.6883L131.564 24.6163Z" fill="black"/>
<path d="M141.247 23.6649C141.219 24.2943 141.146 24.9209 141.029 25.5397C140.941 26.0241 140.796 26.4962 140.597 26.9458C140.451 27.2944 140.214 27.596 139.91 27.8176C139.611 28.0131 139.249 28.0852 138.898 28.0191C138.917 26.6037 139.071 24.6304 139.362 22.0994C139.653 19.5684 140.071 16.7687 140.616 13.7002C140.903 12.8097 141.488 11.2473 142.37 9.01318C142.459 8.79289 142.556 8.70384 142.653 8.74133C142.704 8.7642 142.746 8.8031 142.773 8.85215C142.8 8.9012 142.81 8.95773 142.802 9.01318C142.746 10.1193 142.522 12.2332 142.129 15.3548C141.736 18.4763 141.487 20.6105 141.382 21.7572C141.289 22.9196 141.247 23.5571 141.247 23.6649Z" fill="black"/>
<path d="M141.247 23.693C141.247 24.3445 141.247 24.8273 141.275 25.1319C141.297 25.7235 141.395 26.3097 141.567 26.8755C141.779 27.4436 142.156 27.9338 142.649 28.2816C143.219 28.6729 143.901 28.8655 144.589 28.83C145.558 28.881 146.507 28.5441 147.231 27.8926C147.75 27.3465 148.34 26.8735 148.985 26.4865C149.203 26.3955 149.443 26.3758 149.672 26.4302C149.942 26.4872 150.219 26.5061 150.494 26.4865C150.819 26.4865 151.125 26.1162 151.422 25.371C151.547 24.9346 151.746 24.5237 152.012 24.157C152.129 24.0947 152.265 24.0813 152.392 24.1195C152.669 24.2322 152.959 24.3048 153.256 24.3351C153.557 24.3351 153.827 24.1289 154.063 23.7117C154.245 23.3424 154.401 22.9602 154.528 22.5681C154.704 22.0385 154.848 21.776 154.959 21.776C155.071 21.776 155.173 21.94 155.173 22.2447C155.161 23.5174 154.796 24.7613 154.119 25.835C153.386 26.9974 152.64 27.5786 151.882 27.5786C151.418 28.2863 151.12 28.68 151.046 28.7503C150.582 29.3128 150.118 29.594 149.728 29.594C149.403 29.5306 149.074 29.4945 148.744 29.4862C148.448 29.493 148.158 29.5667 147.894 29.7018C147.532 29.8455 146.848 30.5908 145.843 31.9375C144.835 33.2593 143.749 33.9248 142.593 33.9248C142.014 33.9463 141.44 33.7951 140.945 33.49C140.45 33.185 140.055 32.7396 139.808 32.2094C139.214 30.9045 138.928 29.4781 138.973 28.0426C139.208 26.9212 139.542 25.8232 139.971 24.7616C140.314 23.8899 140.653 23.454 140.996 23.454C141.02 23.4727 141.122 23.5477 141.247 23.693Z" fill="black"/>
<path d="M194.118 24.1804C193.586 24.1743 193.054 24.2198 192.531 24.3164C192.045 24.4494 191.6 24.7022 191.236 25.0522C190.73 25.4988 190.285 26.011 189.913 26.5755C189.699 26.9036 189.476 27.227 189.253 27.5411C189.031 27.8551 188.789 28.1832 188.594 28.5113C188.096 29.1934 187.484 29.782 186.784 30.2502C185.079 31.5407 182.617 32.539 179.399 33.2452C175.898 33.9864 172.327 34.3431 168.75 34.3091C167.372 34.3126 165.994 34.2391 164.624 34.0889C163.147 33.9607 162.064 33.6623 161.374 33.1936C160.242 32.4874 159.675 31.1891 159.675 29.2987C159.676 28.0584 159.776 26.8202 159.972 25.5959C160.153 24.2367 160.358 23.5571 160.594 23.5571C160.734 23.5571 160.873 23.9742 160.998 24.8085C161.044 25.5469 161.354 26.2433 161.871 26.7677C162.567 27.34 163.391 27.7325 164.271 27.9113C165.852 28.2534 167.467 28.4106 169.084 28.38C170.811 28.4128 172.747 28.38 174.896 28.2816C177.045 28.1832 178.786 28.0426 180.127 27.8598C181.796 27.6025 183.441 27.2123 185.048 26.6927C186.144 26.3801 187.209 25.9643 188.228 25.4506C188.963 25.0931 189.637 24.6183 190.224 24.0445C190.488 23.7497 190.732 23.4364 190.952 23.1071C191.272 22.6521 191.623 22.2198 192.001 21.8135C192.574 21.2084 193.318 20.7988 194.132 20.6417C194.422 20.8362 194.649 21.1132 194.784 21.4376C194.919 21.7621 194.955 22.1196 194.889 22.465C194.751 23.0842 194.489 23.6682 194.118 24.1804ZM169.465 18.1107C169.465 17.8764 169.832 17.0561 170.57 15.6594C171.308 14.2627 171.754 13.5643 171.916 13.5643C172.222 13.4377 172.668 13.658 173.253 14.2299C173.734 14.6946 174.175 15.1995 174.571 15.7391C174.933 15.1438 175.332 14.4689 175.773 13.7283C176.214 12.9878 176.502 12.6081 176.646 12.6081C177.11 12.6081 177.63 12.9409 178.252 13.6065C178.787 14.096 179.135 14.7594 179.236 15.4813C179.156 16.3814 178.808 17.236 178.238 17.9326C177.593 18.87 177.115 19.3387 176.809 19.3387C176.614 19.3387 176.252 19.0763 175.732 18.5513C175.299 18.1085 174.833 17.6995 174.339 17.328C173.367 19.3059 172.594 20.2949 172.018 20.2949C171.78 20.2458 171.564 20.121 171.401 19.9387C171.145 19.7231 170.756 19.395 170.226 18.9591C169.697 18.5232 169.465 18.2185 169.465 18.1107Z" fill="black"/>
<path d="M193.798 42.2771C194.531 40.8741 194.98 40.1742 195.144 40.1773C195.45 40.0508 195.896 40.2758 196.481 40.8476C196.968 41.3107 197.413 41.8157 197.813 42.3568C198.175 41.7569 198.576 41.085 199.015 40.3414C199.452 39.5961 199.744 39.2259 199.888 39.2259C200.352 39.2259 200.872 39.5586 201.494 40.2195C202.029 40.7095 202.377 41.3727 202.478 42.0943C202.397 42.986 202.055 43.833 201.494 44.5269C200.847 45.4643 200.371 45.933 200.064 45.933C199.87 45.933 199.507 45.6705 198.988 45.1456C198.556 44.7001 198.09 44.2895 197.595 43.9176C196.623 45.8955 195.85 46.8845 195.274 46.8845C195.037 46.8355 194.821 46.7125 194.657 46.533C194.401 46.3127 194.011 45.9893 193.482 45.5534C192.953 45.1175 192.675 44.8362 192.675 44.7238C192.675 44.4894 193.049 43.6739 193.798 42.2771ZM193.798 22.3572C193.786 22.9802 193.895 23.5995 194.118 24.1804C194.464 24.2381 194.818 24.193 195.139 24.0507C195.46 23.9083 195.732 23.675 195.924 23.379C196.427 22.7369 196.811 22.008 197.057 21.2276C197.301 20.4527 197.456 19.8996 197.521 19.5684C197.589 19.3341 197.62 19.0906 197.614 18.8466C197.617 18.8209 197.615 18.7947 197.607 18.7699C197.599 18.7452 197.586 18.7227 197.568 18.7041C197.55 18.6855 197.528 18.6713 197.504 18.6627C197.479 18.6541 197.453 18.6513 197.428 18.6544C197.354 18.6544 197.228 18.7997 197.047 19.0903C196.383 20.1074 196.035 20.6324 195.998 20.6699C195.689 21.0479 195.05 21.0292 194.081 20.6136C193.902 21.1776 193.807 21.7651 193.798 22.3572Z" fill="black"/>
<path d="M213.238 17.0468C212.338 20.2808 211.33 22.1775 210.216 22.7368C209.231 23.1827 208.276 23.6931 207.357 24.2648C207.11 24.4468 206.885 24.6559 206.684 24.8882C206.268 25.5029 205.917 26.1595 205.635 26.8474C205.041 28.3753 204.563 29.5424 204.205 30.3627C203.677 31.5478 202.738 32.4965 201.564 33.0296C200.845 33.2881 200.104 33.4795 199.35 33.6014C198.615 33.7746 197.866 33.875 197.112 33.9014C196.648 33.9529 196.351 33.8451 196.221 33.5733C196.189 33.4092 196.365 33.1843 196.764 32.8937L197.693 32.2C198.163 31.8438 198.998 31.286 200.199 30.5267L201.494 29.6268C202.307 29.0762 203.039 28.4118 203.667 27.6535C204.136 26.7689 204.559 25.8599 204.934 24.9304C205.385 23.8056 205.944 22.7286 206.605 21.7151C207.106 21.0994 207.707 20.5747 208.383 20.1637L209.975 19.32C210.472 19.0974 210.939 18.8141 211.368 18.4763C211.761 18.0614 212.089 17.587 212.338 17.0702C212.732 16.3625 213.011 16.0203 213.173 16.0344C213.336 16.0484 213.364 16.4328 213.238 17.0468ZM203.908 42.9052C203.908 43.0114 204.173 43.2833 204.702 43.7207C205.231 44.1566 205.63 44.48 205.876 44.7003C206.041 44.8813 206.259 45.0044 206.498 45.0518C207.069 45.0518 207.844 44.0629 208.819 42.0849C209.314 42.4569 209.78 42.8675 210.212 43.313C210.736 43.8379 211.094 44.1004 211.293 44.1004C211.595 44.1004 212.073 43.6317 212.718 42.6943C213.29 41.9984 213.638 41.1434 213.716 40.2429C213.616 39.5209 213.268 38.8574 212.732 38.3681C212.115 37.7073 211.581 37.3745 211.131 37.3745C210.987 37.3745 210.695 37.7494 210.254 38.49L209.056 40.5054C208.656 39.9632 208.208 39.4581 207.719 38.9962C207.134 38.4244 206.689 38.1994 206.382 38.3306C206.224 38.3306 205.776 39.029 205.036 40.4257C204.296 41.8225 203.92 42.649 203.908 42.9052Z" fill="black"/>
<path d="M217.629 32.0219C217.348 32.3964 217.022 32.7349 216.659 33.0296C216.319 33.2732 215.953 33.4791 215.568 33.6436C215.176 33.8062 214.771 33.9332 214.357 34.0232C213.916 34.1217 213.48 34.2248 213.048 34.3373L211.27 34.7732C210.84 34.9003 210.385 34.918 209.947 34.8247C209.947 34.5716 210.244 34.2529 210.838 33.8873L212.482 32.8093C213.039 32.4578 213.596 32.1062 214.153 31.7641C215.336 30.977 216.407 30.0309 217.337 28.9519C217.797 28.3912 218.22 27.8009 218.604 27.1848C218.799 26.8943 219.096 26.3927 219.491 25.685L220.651 23.2899C220.87 22.8139 221.131 22.359 221.431 21.9307C221.668 21.5838 221.895 21.4198 222.081 21.462C222.262 21.5557 222.313 21.7338 222.243 22.0057C222.044 22.6056 221.918 22.9993 221.863 23.1774C221.637 23.8287 221.492 24.5056 221.431 25.1929C221.324 25.5209 221.255 25.7272 221.218 25.8209C220.787 26.8021 220.339 27.727 219.871 28.5956C219.191 29.781 218.442 30.9251 217.629 32.0219Z" fill="black"/>
<path d="M221.454 25.0804C221.448 25.7297 221.637 26.3657 221.997 26.9036C222.128 27.1519 222.321 27.3608 222.558 27.509C222.794 27.6572 223.065 27.7394 223.344 27.7473C223.45 27.7473 223.562 27.6582 223.669 27.4754C223.775 27.2927 223.882 26.9224 224.1 26.2521C224.476 25.2163 224.792 24.696 225.029 24.696C225.342 24.7804 225.643 24.9098 225.92 25.0804C226.219 25.3286 226.453 25.6464 226.604 26.0064C226.754 26.3665 226.816 26.758 226.783 27.1474C226.742 28.5928 226.303 29.9982 225.516 31.2063C224.451 33.0218 223.166 33.9295 221.659 33.9295C221.112 33.9469 220.58 33.7504 220.173 33.3811C219.692 32.9581 219.346 32.4001 219.18 31.7782C219.019 31.3339 218.892 30.8779 218.799 30.4142C218.764 30.2717 218.747 30.1252 218.748 29.9783C218.831 29.4928 218.952 29.0147 219.11 28.5488C219.279 28.0371 219.482 27.5375 219.718 27.0536C219.935 26.597 220.206 26.1689 220.526 25.7787C220.764 25.4626 221.086 25.2206 221.454 25.0804Z" fill="black"/>
<path d="M269.591 3.31373C269.638 3.03102 269.783 2.77428 269.999 2.58898C270.216 2.40368 270.491 2.30178 270.774 2.30133H273.56C273.844 2.30178 274.118 2.40368 274.335 2.58898C274.551 2.77428 274.696 3.03102 274.743 3.31373L274.971 4.69641C275.009 4.89513 275.091 5.08263 275.21 5.24494C275.33 5.40724 275.485 5.54017 275.662 5.63382L275.895 5.76974C276.063 5.87746 276.254 5.94558 276.452 5.96911C276.651 5.99263 276.852 5.97095 277.041 5.90567L278.341 5.43696C278.607 5.33564 278.901 5.33276 279.169 5.42883C279.438 5.5249 279.664 5.71372 279.808 5.96191L281.2 8.38511C281.342 8.63463 281.392 8.9268 281.341 9.20988C281.29 9.49297 281.141 9.74871 280.922 9.93184L279.826 10.7802C279.674 10.9112 279.553 11.0755 279.472 11.2606C279.392 11.4457 279.354 11.6469 279.362 11.8488C279.367 11.941 279.367 12.0333 279.362 12.1254C279.355 12.3273 279.393 12.5283 279.473 12.7134C279.553 12.8984 279.674 13.0627 279.826 13.194L280.898 14.0846C281.118 14.2669 281.266 14.5218 281.317 14.8041C281.368 15.0864 281.319 15.3778 281.177 15.6266L279.784 18.0498C279.642 18.2984 279.417 18.4881 279.149 18.5851C278.882 18.6821 278.589 18.68 278.322 18.5794L277.022 18.1107C276.834 18.0434 276.632 18.0206 276.434 18.0442C276.235 18.0677 276.044 18.137 275.876 18.2466L275.639 18.3826C275.463 18.477 275.309 18.6103 275.19 18.7725C275.071 18.9347 274.99 19.1218 274.952 19.32L274.725 20.7027C274.678 20.9854 274.533 21.2421 274.316 21.4274C274.1 21.6127 273.825 21.7146 273.541 21.7151H270.756C270.472 21.7146 270.197 21.6127 269.981 21.4274C269.764 21.2421 269.619 20.9854 269.572 20.7027L269.345 19.32C269.307 19.1213 269.225 18.9338 269.105 18.7715C268.985 18.6091 268.831 18.4762 268.653 18.3826L268.421 18.2466C268.252 18.1366 268.061 18.0671 267.861 18.0436C267.662 18.02 267.459 18.043 267.27 18.1107L265.97 18.5794C265.704 18.68 265.411 18.6821 265.143 18.5851C264.875 18.4881 264.65 18.2984 264.508 18.0498L263.115 15.6266C262.974 15.3778 262.924 15.0864 262.975 14.8041C263.026 14.5218 263.174 14.2669 263.394 14.0846L264.466 13.194C264.618 13.0623 264.738 12.8979 264.819 12.713C264.899 12.528 264.937 12.3272 264.93 12.1254C264.926 12.0333 264.926 11.941 264.93 11.8488C264.937 11.647 264.899 11.4462 264.819 11.2612C264.738 11.0763 264.618 10.9119 264.466 10.7802L263.394 9.88965C263.174 9.70732 263.026 9.45239 262.975 9.17011C262.924 8.88782 262.974 8.59642 263.115 8.34761L264.508 5.92441C264.655 5.66826 264.889 5.47499 265.167 5.38091C265.444 5.28683 265.747 5.29843 266.017 5.41353L267.312 5.88223C267.501 5.94758 267.703 5.96929 267.902 5.94578C268.102 5.92226 268.293 5.85411 268.463 5.74631L268.695 5.61038C268.873 5.51674 269.027 5.38381 269.147 5.2215C269.267 5.0592 269.349 4.8717 269.387 4.67297L269.614 3.2903L269.591 3.31373Z" stroke="#FF0000" stroke-width="1.5" stroke-linecap="round" stroke-linejoin="round"/>
<path d="M275.365 12.0035C275.366 12.6443 275.179 13.2709 274.827 13.8041C274.475 14.3374 273.974 14.7532 273.388 14.9991C272.802 15.2449 272.157 15.3097 271.535 15.1853C270.912 15.0608 270.34 14.7528 269.891 14.3C269.442 13.8472 269.136 13.2702 269.012 12.6418C268.888 12.0134 268.951 11.3619 269.194 10.7699C269.437 10.1778 269.848 9.6717 270.375 9.31561C270.903 8.95952 271.523 8.76946 272.158 8.76945C273.008 8.76945 273.823 9.11004 274.424 9.7164C275.026 10.3228 275.364 11.1454 275.365 12.0035Z" stroke="#FF0000" stroke-width="1.5" stroke-linecap="round" stroke-linejoin="round"/>
</g>
<defs>
<clipPath id="clip0_1369_9410">
<rect width="282" height="48" fill="white" transform="translate(0.5)"/>
</clipPath>
</defs>
</svg>
