<svg width="24" height="24" viewBox="0 0 24 24" fill="none" xmlns="http://www.w3.org/2000/svg">
<g id="Frame">
<path id="Vector" d="M17.9825 18.7247C17.2838 17.7996 16.3798 17.0493 15.3417 16.5331C14.3036 16.0168 13.1599 15.7487 12.0005 15.7497C10.8411 15.7487 9.69739 16.0168 8.65932 16.5331C7.62125 17.0493 6.71724 17.7996 6.0185 18.7247M17.9825 18.7247C19.346 17.5119 20.3076 15.9133 20.7417 14.1408C21.1758 12.3683 21.0608 10.5058 20.412 8.80018C19.7632 7.09457 18.6112 5.62648 17.1089 4.5906C15.6066 3.55472 13.8248 3 12 3C10.1752 3 8.39343 3.55472 6.89111 4.5906C5.38878 5.62648 4.23683 7.09457 3.58804 8.80018C2.93924 10.5058 2.82425 12.3683 3.25832 14.1408C3.69239 15.9133 4.655 17.5119 6.0185 18.7247M17.9825 18.7247C16.3365 20.1929 14.2061 21.0028 12.0005 20.9997C9.79453 21.0031 7.66474 20.1931 6.0185 18.7247M15.0005 9.74971C15.0005 10.5454 14.6844 11.3084 14.1218 11.871C13.5592 12.4336 12.7962 12.7497 12.0005 12.7497C11.2049 12.7497 10.4418 12.4336 9.87918 11.871C9.31657 11.3084 9.0005 10.5454 9.0005 9.74971C9.0005 8.95406 9.31657 8.19099 9.87918 7.62838C10.4418 7.06578 11.2049 6.74971 12.0005 6.74971C12.7962 6.74971 13.5592 7.06578 14.1218 7.62838C14.6844 8.19099 15.0005 8.95406 15.0005 9.74971Z" stroke="#D1D5DB" stroke-width="1.5" stroke-linecap="round" stroke-linejoin="round"/>
</g>
</svg>
